<svg width="15" height="14" viewBox="0 0 15 14" fill="none" xmlns="http://www.w3.org/2000/svg">
<path d="M5.4 9H7.5C7.68889 9 7.84733 8.936 7.97533 8.808C8.10333 8.68 8.16711 8.52178 8.16667 8.33334C8.16622 8.14489 8.10222 7.98667 7.97467 7.85867C7.84711 7.73067 7.68889 7.66667 7.5 7.66667H5.4L5.98333 7.06667C6.10556 6.94445 6.16667 6.79178 6.16667 6.60867C6.16667 6.42556 6.1 6.26711 5.96667 6.13334C5.84444 6.01111 5.68889 5.95 5.5 5.95C5.31111 5.95 5.15556 6.01111 5.03333 6.13334L3.3 7.86667C3.16667 8 3.1 8.15556 3.1 8.33334C3.1 8.51111 3.16667 8.66667 3.3 8.8L5.03333 10.5333C5.15556 10.6556 5.30844 10.7196 5.492 10.7253C5.67556 10.7311 5.83378 10.6671 5.96667 10.5333C6.08889 10.4111 6.15289 10.2584 6.15867 10.0753C6.16444 9.89222 6.106 9.73378 5.98333 9.6L5.4 9ZM9.6 6.33334L9.01667 6.93334C8.89444 7.05556 8.83333 7.20845 8.83333 7.392C8.83333 7.57556 8.9 7.73378 9.03333 7.86667C9.15556 7.98889 9.31111 8.05 9.5 8.05C9.68889 8.05 9.84444 7.98889 9.96667 7.86667L11.7 6.13334C11.8333 6 11.9 5.84445 11.9 5.66667C11.9 5.48889 11.8333 5.33334 11.7 5.2L9.96667 3.46667C9.84444 3.34445 9.69178 3.28045 9.50867 3.27467C9.32555 3.26889 9.16711 3.33289 9.03333 3.46667C8.91111 3.58889 8.84711 3.74178 8.84133 3.92534C8.83556 4.10889 8.894 4.26711 9.01667 4.4L9.6 5H7.5C7.31111 5 7.15289 5.064 7.02533 5.192C6.89778 5.32 6.83378 5.47822 6.83333 5.66667C6.83289 5.85511 6.89689 6.01356 7.02533 6.142C7.15378 6.27045 7.312 6.33422 7.5 6.33334H9.6ZM7.5 13.6667C6.57778 13.6667 5.71111 13.4916 4.9 13.1413C4.08889 12.7911 3.38333 12.3162 2.78333 11.7167C2.18333 11.1171 1.70844 10.4116 1.35867 9.6C1.00889 8.78845 0.833777 7.92178 0.833333 7C0.832888 6.07822 1.008 5.21156 1.35867 4.4C1.70933 3.58845 2.18422 2.88289 2.78333 2.28334C3.38244 1.68378 4.088 1.20889 4.9 0.858669C5.712 0.508447 6.57867 0.333336 7.5 0.333336C8.42133 0.333336 9.288 0.508447 10.1 0.858669C10.912 1.20889 11.6176 1.68378 12.2167 2.28334C12.8158 2.88289 13.2909 3.58845 13.642 4.4C13.9931 5.21156 14.168 6.07822 14.1667 7C14.1653 7.92178 13.9902 8.78845 13.6413 9.6C13.2924 10.4116 12.8176 11.1171 12.2167 11.7167C11.6158 12.3162 10.9102 12.7913 10.1 13.142C9.28978 13.4927 8.42311 13.6676 7.5 13.6667ZM7.5 12.3333C8.98889 12.3333 10.25 11.8167 11.2833 10.7833C12.3167 9.75 12.8333 8.48889 12.8333 7C12.8333 5.51111 12.3167 4.25 11.2833 3.21667C10.25 2.18334 8.98889 1.66667 7.5 1.66667C6.01111 1.66667 4.75 2.18334 3.71667 3.21667C2.68333 4.25 2.16667 5.51111 2.16667 7C2.16667 8.48889 2.68333 9.75 3.71667 10.7833C4.75 11.8167 6.01111 12.3333 7.5 12.3333Z" fill="white"/>
</svg>
