<svg width="44" height="44" viewBox="0 0 44 44" fill="none" xmlns="http://www.w3.org/2000/svg">
<rect width="44" height="44" rx="8" fill="white"/>
<rect x="0.5" y="0.5" width="43" height="43" rx="7.5" stroke="#0F0F0F" stroke-opacity="0.2"/>
<path d="M27 28C27.5304 28 28.0391 28.2107 28.4142 28.5858C28.7893 28.9609 29 29.4696 29 30C29 30.5304 28.7893 31.0391 28.4142 31.4142C28.0391 31.7893 27.5304 32 27 32C26.4696 32 25.9609 31.7893 25.5858 31.4142C25.2107 31.0391 25 30.5304 25 30C25 28.89 25.89 28 27 28ZM11 12H14.27L15.21 14H30C30.2652 14 30.5196 14.1054 30.7071 14.2929C30.8946 14.4804 31 14.7348 31 15C31 15.17 30.95 15.34 30.88 15.5L27.3 21.97C26.96 22.58 26.3 23 25.55 23H18.1L17.2 24.63L17.17 24.75C17.17 24.8163 17.1963 24.8799 17.2432 24.9268C17.2901 24.9737 17.3537 25 17.42 25H29V27H17C16.4696 27 15.9609 26.7893 15.5858 26.4142C15.2107 26.0391 15 25.5304 15 25C15 24.65 15.09 24.32 15.24 24.04L16.6 21.59L13 14H11V12ZM17 28C17.5304 28 18.0391 28.2107 18.4142 28.5858C18.7893 28.9609 19 29.4696 19 30C19 30.5304 18.7893 31.0391 18.4142 31.4142C18.0391 31.7893 17.5304 32 17 32C16.4696 32 15.9609 31.7893 15.5858 31.4142C15.2107 31.0391 15 30.5304 15 30C15 28.89 15.89 28 17 28ZM26 21L28.78 16H16.14L18.5 21H26Z" fill="black"/>
</svg>
