<svg width="14" height="14" viewBox="0 0 14 14" fill="none" xmlns="http://www.w3.org/2000/svg">
<path d="M6.06667 10.0667L10.7667 5.36667L9.83333 4.43334L6.06667 8.2L4.16667 6.3L3.23334 7.23334L6.06667 10.0667ZM7 13.6667C6.07778 13.6667 5.21111 13.4917 4.4 13.1417C3.58889 12.7917 2.88334 12.3167 2.28334 11.7167C1.68334 11.1167 1.20834 10.4111 0.858336 9.6C0.508336 8.78889 0.333336 7.92222 0.333336 7C0.333336 6.07778 0.508336 5.21111 0.858336 4.4C1.20834 3.58889 1.68334 2.88334 2.28334 2.28334C2.88334 1.68334 3.58889 1.20834 4.4 0.858336C5.21111 0.508336 6.07778 0.333336 7 0.333336C7.92222 0.333336 8.78889 0.508336 9.6 0.858336C10.4111 1.20834 11.1167 1.68334 11.7167 2.28334C12.3167 2.88334 12.7917 3.58889 13.1417 4.4C13.4917 5.21111 13.6667 6.07778 13.6667 7C13.6667 7.92222 13.4917 8.78889 13.1417 9.6C12.7917 10.4111 12.3167 11.1167 11.7167 11.7167C11.1167 12.3167 10.4111 12.7917 9.6 13.1417C8.78889 13.4917 7.92222 13.6667 7 13.6667ZM7 12.3333C8.48889 12.3333 9.75 11.8167 10.7833 10.7833C11.8167 9.75 12.3333 8.48889 12.3333 7C12.3333 5.51111 11.8167 4.25 10.7833 3.21667C9.75 2.18334 8.48889 1.66667 7 1.66667C5.51111 1.66667 4.25 2.18334 3.21667 3.21667C2.18334 4.25 1.66667 5.51111 1.66667 7C1.66667 8.48889 2.18334 9.75 3.21667 10.7833C4.25 11.8167 5.51111 12.3333 7 12.3333Z" fill="#4C58D9"/>
</svg>
