<svg width="40" height="40" viewBox="0 0 40 40" fill="none" xmlns="http://www.w3.org/2000/svg">
<mask id="mask0_1_30" style="mask-type:alpha" maskUnits="userSpaceOnUse" x="0" y="0" width="40" height="40">
<rect width="40" height="40" fill="#D9D9D9"/>
</mask>
<g mask="url(#mask0_1_30)">
<path d="M18.9748 32.5C18.5559 32.5 18.2055 32.3589 17.9236 32.0767C17.6413 31.7947 17.5002 31.4443 17.5002 31.0254V21.3783L8.17024 9.52583C7.84968 9.09833 7.80315 8.65389 8.03065 8.1925C8.25843 7.73083 8.6426 7.5 9.18315 7.5H30.8173C31.3579 7.5 31.742 7.73083 31.9698 8.1925C32.1973 8.65389 32.1508 9.09833 31.8302 9.52583L22.5002 21.3783V31.0254C22.5002 31.4443 22.3591 31.7947 22.0769 32.0767C21.795 32.3589 21.4445 32.5 21.0257 32.5H18.9748ZM20.0002 20.5L28.2502 10H11.7502L20.0002 20.5Z" fill="#717171"/>
</g>
</svg>
