<svg width="12" height="13" viewBox="0 0 12 13" fill="none" xmlns="http://www.w3.org/2000/svg">
<path d="M10.886 5.07565C11.2048 4.86237 11.4703 4.57859 11.6619 4.24627C11.8534 3.91395 11.966 3.542 11.9908 3.15921C12.0155 2.77643 11.9519 2.39307 11.8048 2.03882C11.6576 1.68457 11.431 1.36893 11.1423 1.11633C10.8536 0.863721 10.5107 0.68093 10.1401 0.582102C9.76944 0.483274 9.38104 0.47106 9.00492 0.546405C8.62881 0.621749 8.27507 0.782632 7.9711 1.0166C7.66713 1.25057 7.42108 1.55135 7.25199 1.89565C8.06765 2.09697 8.82322 2.49073 9.45547 3.04399C10.0877 3.59725 10.5782 4.29391 10.886 5.07565Z" fill="url(#paint0_linear_1_122)"/>
<path d="M10.886 5.07565C11.2048 4.86237 11.4703 4.57859 11.6619 4.24627C11.8534 3.91395 11.966 3.542 11.9908 3.15921C12.0155 2.77643 11.9519 2.39307 11.8048 2.03882C11.6576 1.68457 11.431 1.36893 11.1423 1.11633C10.8536 0.863721 10.5107 0.68093 10.1401 0.582102C9.76944 0.483274 9.38104 0.47106 9.00492 0.546405C8.62881 0.621749 8.27507 0.782632 7.9711 1.0166C7.66713 1.25057 7.42108 1.55135 7.25199 1.89565C8.06765 2.09697 8.82322 2.49073 9.45547 3.04399C10.0877 3.59725 10.5782 4.29391 10.886 5.07565Z" fill="url(#paint1_radial_1_122)"/>
<path d="M4.74399 1.89565C3.92833 2.09697 3.17275 2.49073 2.5405 3.04399C1.90826 3.59725 1.41773 4.29391 1.10999 5.07565C0.791159 4.86237 0.525683 4.57859 0.33411 4.24627C0.142536 3.91395 0.0300039 3.542 0.00522284 3.15921C-0.0195583 2.77643 0.0440766 2.39307 0.191202 2.03882C0.338327 1.68457 0.564997 1.36893 0.853665 1.11633C1.14233 0.863721 1.48526 0.68093 1.8559 0.582102C2.22653 0.483274 2.61494 0.47106 2.99105 0.546405C3.36717 0.621749 3.7209 0.782632 4.02487 1.0166C4.32884 1.25057 4.57489 1.55135 4.74399 1.89565Z" fill="url(#paint2_linear_1_122)"/>
<path d="M4.74399 1.89565C3.92833 2.09697 3.17275 2.49073 2.5405 3.04399C1.90826 3.59725 1.41773 4.29391 1.10999 5.07565C0.791159 4.86237 0.525683 4.57859 0.33411 4.24627C0.142536 3.91395 0.0300039 3.542 0.00522284 3.15921C-0.0195583 2.77643 0.0440766 2.39307 0.191202 2.03882C0.338327 1.68457 0.564997 1.36893 0.853665 1.11633C1.14233 0.863721 1.48526 0.68093 1.8559 0.582102C2.22653 0.483274 2.61494 0.47106 2.99105 0.546405C3.36717 0.621749 3.7209 0.782632 4.02487 1.0166C4.32884 1.25057 4.57489 1.55135 4.74399 1.89565Z" fill="url(#paint3_radial_1_122)"/>
<path d="M1.35199 12.3497L2.85199 10.8497L2.14399 10.1427L0.643989 11.6427C0.550235 11.7365 0.497618 11.8638 0.497711 11.9965C0.497805 12.1292 0.550603 12.2564 0.644489 12.3502C0.738376 12.4439 0.865661 12.4965 0.998343 12.4964C1.13102 12.4963 1.25824 12.4435 1.35199 12.3497Z" fill="url(#paint4_linear_1_122)"/>
<path d="M11.352 11.6427L9.85199 10.1427L9.14399 10.8497L10.644 12.3497C10.6901 12.3974 10.7453 12.4355 10.8063 12.4617C10.8673 12.4879 10.9329 12.5017 10.9993 12.5023C11.0657 12.5029 11.1315 12.4902 11.193 12.4651C11.2544 12.4399 11.3102 12.4028 11.3572 12.3559C11.4041 12.3089 11.4413 12.2531 11.4664 12.1916C11.4915 12.1302 11.5042 12.0643 11.5036 11.998C11.503 11.9316 11.4892 11.866 11.463 11.805C11.4368 11.7439 11.3987 11.6888 11.351 11.6427" fill="url(#paint5_linear_1_122)"/>
<path d="M11.498 6.99565C11.498 8.45434 10.9185 9.85329 9.88707 10.8847C8.85562 11.9162 7.45668 12.4957 5.99799 12.4957C4.5393 12.4957 3.14035 11.9162 2.1089 10.8847C1.07745 9.85329 0.497986 8.45434 0.497986 6.99565C0.497986 5.53696 1.07745 4.13801 2.1089 3.10656C3.14035 2.07511 4.5393 1.49565 5.99799 1.49565C7.45668 1.49565 8.85562 2.07511 9.88707 3.10656C10.9185 4.13801 11.498 5.53696 11.498 6.99565Z" fill="url(#paint6_linear_1_122)"/>
<path d="M10.498 6.99565C10.498 8.18913 10.0239 9.33372 9.17997 10.1776C8.33605 11.0215 7.19146 11.4957 5.99799 11.4957C4.80451 11.4957 3.65992 11.0215 2.81601 10.1776C1.97209 9.33372 1.49799 8.18913 1.49799 6.99565C1.49799 5.80218 1.97209 4.65758 2.81601 3.81367C3.65992 2.96976 4.80451 2.49565 5.99799 2.49565C7.19146 2.49565 8.33605 2.96976 9.17997 3.81367C10.0239 4.65758 10.498 5.80218 10.498 6.99565Z" fill="url(#paint7_linear_1_122)"/>
<path fill-rule="evenodd" clip-rule="evenodd" d="M5.49799 3.99565C5.63059 3.99565 5.75777 4.04833 5.85154 4.1421C5.94531 4.23587 5.99799 4.36304 5.99799 4.49565V6.99565H7.49799C7.63059 6.99565 7.75777 7.04833 7.85154 7.1421C7.94531 7.23587 7.99799 7.36304 7.99799 7.49565C7.99799 7.62826 7.94531 7.75544 7.85154 7.84921C7.75777 7.94297 7.63059 7.99565 7.49799 7.99565H5.49799C5.36538 7.99565 5.2382 7.94297 5.14443 7.84921C5.05066 7.75544 4.99799 7.62826 4.99799 7.49565V4.49565C4.99799 4.36304 5.05066 4.23587 5.14443 4.1421C5.2382 4.04833 5.36538 3.99565 5.49799 3.99565Z" fill="url(#paint8_linear_1_122)"/>
<defs>
<linearGradient id="paint0_linear_1_122" x1="12.805" y1="5.40865" x2="8.13699" y2="1.58965" gradientUnits="userSpaceOnUse">
<stop stop-color="#FF6F47"/>
<stop offset="1" stop-color="#FFCD0F"/>
</linearGradient>
<radialGradient id="paint1_radial_1_122" cx="0" cy="0" r="1" gradientUnits="userSpaceOnUse" gradientTransform="translate(6.39799 6.89565) rotate(-45) scale(7.35391)">
<stop offset="0.644" stop-color="#FF6F47"/>
<stop offset="0.942" stop-color="#FF6F47" stop-opacity="0"/>
</radialGradient>
<linearGradient id="paint2_linear_1_122" x1="4.91999" y1="5.40865" x2="0.251988" y2="1.58965" gradientUnits="userSpaceOnUse">
<stop stop-color="#FF6F47"/>
<stop offset="1" stop-color="#FFCD0F"/>
</linearGradient>
<radialGradient id="paint3_radial_1_122" cx="0" cy="0" r="1" gradientUnits="userSpaceOnUse" gradientTransform="translate(6.39799 6.89565) rotate(-135) scale(7.35391)">
<stop offset="0.659" stop-color="#FF6F47"/>
<stop offset="0.949" stop-color="#FF6F47" stop-opacity="0"/>
</radialGradient>
<linearGradient id="paint4_linear_1_122" x1="0.497989" y1="9.13165" x2="0.970989" y2="13.2707" gradientUnits="userSpaceOnUse">
<stop stop-color="#CAD2D9"/>
<stop offset="1" stop-color="#70777D"/>
</linearGradient>
<linearGradient id="paint5_linear_1_122" x1="0.497991" y1="9.13165" x2="0.970991" y2="13.2707" gradientUnits="userSpaceOnUse">
<stop stop-color="#CAD2D9"/>
<stop offset="1" stop-color="#70777D"/>
</linearGradient>
<linearGradient id="paint6_linear_1_122" x1="2.33099" y1="0.884651" x2="7.83099" y2="13.1067" gradientUnits="userSpaceOnUse">
<stop stop-color="#1EC8B0"/>
<stop offset="1" stop-color="#2764E7"/>
</linearGradient>
<linearGradient id="paint7_linear_1_122" x1="2.86799" y1="1.51765" x2="8.73699" y2="14.0387" gradientUnits="userSpaceOnUse">
<stop stop-color="#FDFDFD"/>
<stop offset="1" stop-color="#DEDEFF"/>
</linearGradient>
<linearGradient id="paint8_linear_1_122" x1="6.39799" y1="3.91765" x2="8.28399" y2="7.06165" gradientUnits="userSpaceOnUse">
<stop stop-color="#1EC8B0"/>
<stop offset="1" stop-color="#2764E7"/>
</linearGradient>
</defs>
</svg>
