<svg width="17" height="16" viewBox="0 0 17 16" fill="none" xmlns="http://www.w3.org/2000/svg">
<mask id="mask0_1_230" style="mask-type:alpha" maskUnits="userSpaceOnUse" x="0" y="0" width="17" height="16">
<rect x="0.5" width="16" height="16" fill="#D9D9D9"/>
</mask>
<g mask="url(#mask0_1_230)">
<path d="M7.56667 11.0667L12.2667 6.36667L11.3333 5.43334L7.56667 9.2L5.66667 7.3L4.73334 8.23334L7.56667 11.0667ZM8.5 14.6667C7.57778 14.6667 6.71111 14.4917 5.9 14.1417C5.08889 13.7917 4.38334 13.3167 3.78334 12.7167C3.18334 12.1167 2.70834 11.4111 2.35834 10.6C2.00834 9.78889 1.83334 8.92222 1.83334 8C1.83334 7.07778 2.00834 6.21111 2.35834 5.4C2.70834 4.58889 3.18334 3.88334 3.78334 3.28334C4.38334 2.68334 5.08889 2.20834 5.9 1.85834C6.71111 1.50834 7.57778 1.33334 8.5 1.33334C9.42222 1.33334 10.2889 1.50834 11.1 1.85834C11.9111 2.20834 12.6167 2.68334 13.2167 3.28334C13.8167 3.88334 14.2917 4.58889 14.6417 5.4C14.9917 6.21111 15.1667 7.07778 15.1667 8C15.1667 8.92222 14.9917 9.78889 14.6417 10.6C14.2917 11.4111 13.8167 12.1167 13.2167 12.7167C12.6167 13.3167 11.9111 13.7917 11.1 14.1417C10.2889 14.4917 9.42222 14.6667 8.5 14.6667Z" fill="#4C58D9"/>
</g>
</svg>
